<svg version="1.0" xmlns="http://www.w3.org/2000/svg"
 width="256.000000pt" height="256.000000pt" viewBox="0 0 256.000000 256.000000"
 preserveAspectRatio="xMidYMid meet">

<g transform="translate(0.000000,256.000000) scale(0.100000,-0.100000)"
fill="#476ff1" stroke="none">
<path d="M677 1950 c-35 -3 -62 -11 -67 -20 -14 -22 -12 -124 2 -138 17 -17
142 -16 157 2 7 9 11 39 9 76 -4 78 -18 89 -101 80z"/>
<path d="M896 1925 c-33 -30 -35 -81 -5 -119 19 -24 26 -26 97 -26 72 0 80 -2
115 -31 32 -26 37 -36 37 -72 0 -31 -7 -48 -27 -69 l-27 -28 -167 0 -167 0
-26 -31 c-35 -41 -35 -88 0 -123 26 -25 30 -26 156 -26 147 0 180 -11 198 -66
14 -41 5 -76 -27 -105 -21 -21 -37 -24 -127 -29 -115 -6 -132 -14 -142 -67
-12 -66 9 -88 109 -114 43 -11 51 -17 69 -55 21 -42 21 -42 1 -75 -30 -52 -53
-59 -201 -59 -150 0 -181 -9 -202 -60 -11 -27 -11 -37 3 -66 9 -19 28 -39 43
-44 14 -6 153 -10 323 -10 l297 0 17 93 c10 50 25 122 33 158 l15 66 187 6
c189 6 275 20 380 64 56 23 137 80 186 129 107 109 162 321 122 472 -30 112
-97 191 -212 247 -126 62 -153 65 -615 65 l-416 0 -27 -25z m774 -325 c47 -24
70 -64 70 -120 0 -42 -27 -107 -54 -129 -9 -7 -13 -18 -9 -24 3 -5 2 -7 -4 -4
-5 3 -31 0 -58 -8 -29 -9 -90 -15 -152 -15 -118 0 -114 -6 -89 103 8 34 22 97
31 140 l17 77 104 0 c85 0 112 -4 144 -20z"/>
<path d="M391 1186 c-7 -9 -11 -39 -9 -77 4 -81 17 -89 148 -89 127 0 140 9
140 94 0 35 -5 67 -12 74 -18 18 -252 16 -267 -2z"/>
</g>
</svg>
