<svg width="75" height="16" viewBox="0 0 75 16" fill="none" xmlns="http://www.w3.org/2000/svg">
<g clip-path="url(#clip0_21_552)">
<path d="M10.643 7.99346H15.0271L13.7403 14.0571C12.9042 14.6095 11.9758 15.0269 10.9934 15.2921C9.91372 15.5858 8.79446 15.7312 7.67044 15.7236C6.28109 15.7506 4.90352 15.4793 3.64267 14.9303C2.52985 14.4519 1.59125 13.6768 0.94359 12.7012C0.295932 11.7256 -0.0322128 10.5927 -3.89568e-05 9.44332C-0.029618 7.91315 0.392122 6.40515 1.21849 5.08628C2.03182 3.81314 3.20922 2.7801 4.6167 2.1047C6.16506 1.36783 7.88216 0.999003 9.6175 1.03055C12.723 1.03055 14.9882 1.94754 16.4129 3.7815L12.7999 6.41154C12.4019 5.90595 11.8818 5.49637 11.2825 5.21649C10.6842 4.97104 10.0366 4.85015 9.3839 4.86215C8.58631 4.84544 7.79904 5.03389 7.1072 5.40713C6.4623 5.76497 5.9425 6.29179 5.61151 6.92303C5.25144 7.61238 5.07126 8.37239 5.0859 9.14015C5.06884 9.51319 5.13835 9.88524 5.28963 10.2305C5.4409 10.5758 5.6703 10.886 5.96193 11.1396C6.63466 11.6714 7.49856 11.9409 8.37621 11.8929C8.87569 11.8946 9.3727 11.8269 9.85111 11.6921L10.643 7.99346ZM22.6956 4.92447L22.3521 6.56778H28.6774L27.9508 9.98087H21.6058L21.2207 11.8279H28.7219L27.9528 15.4018H15.5151L18.5065 1.34769H30.667L29.8999 4.91704L22.6956 4.92447ZM35.557 4.92447H31.1758L31.9677 1.25003H45.7714L44.9795 4.92447H40.6003L38.3989 15.3014H33.3555L35.557 4.92447Z" fill="#021026"/>
<path d="M44.4895 7.8252H50.9009L50.1743 11.2383H43.7629L44.4895 7.8252Z" fill="#021026"/>
<path d="M71.8326 2.47102C70.48 1.58335 68.8466 1.15378 67.2 1.25272H59.4969C59.2134 1.25272 58.9415 1.35853 58.741 1.54689C58.5405 1.73525 58.4278 1.99072 58.4278 2.25711C58.4278 2.52349 58.5405 2.77896 58.741 2.96732C58.9415 3.15568 59.2134 3.26152 59.4969 3.26152H60.5066C60.7888 3.26152 61.0594 3.36684 61.259 3.55433C61.4586 3.74182 61.5707 3.99611 61.5707 4.26126C61.5707 4.52641 61.4586 4.78069 61.259 4.96818C61.0594 5.15567 60.7888 5.26102 60.5066 5.26102H57.5488C57.2653 5.26102 56.9934 5.36683 56.7929 5.55519C56.5924 5.74355 56.4798 5.99902 56.4798 6.2654C56.4798 6.53179 56.5924 6.78726 56.7929 6.97562C56.9934 7.16398 57.2653 7.26982 57.5488 7.26982H59.873C60.1566 7.26982 60.4285 7.37563 60.629 7.56399C60.8295 7.75235 60.9421 8.00782 60.9421 8.27421C60.9421 8.54059 60.8295 8.79606 60.629 8.98442C60.4285 9.17278 60.1566 9.27862 59.873 9.27862H58.4476C58.1641 9.27492 57.8906 9.37718 57.6874 9.56292C57.4841 9.74867 57.3677 10.0027 57.3637 10.269C57.3598 10.5354 57.4687 10.7924 57.6664 10.9834C57.8641 11.1744 58.1344 11.2837 58.4179 11.2874H58.5565C58.8401 11.2874 59.112 11.3932 59.3125 11.5816C59.5129 11.77 59.6256 12.0254 59.6256 12.2918C59.6256 12.5582 59.5129 12.8137 59.3125 13.002C59.112 13.1904 58.8401 13.2962 58.5565 13.2962H55.874C55.5905 13.2962 55.3185 13.402 55.118 13.5904C54.9176 13.7788 54.8049 14.0342 54.8049 14.3006C54.8049 14.567 54.9176 14.8225 55.118 15.0108C55.3185 15.1992 55.5905 15.305 55.874 15.305H62.6051L63.3277 11.8547H65.9112C67.2821 11.8752 68.6418 11.6216 69.9004 11.1107C70.9789 10.6651 71.8994 9.93903 72.5532 9.0182C73.1795 8.0869 73.5029 7.00416 73.4837 5.90272C73.5177 5.24871 73.3857 4.59647 73.0986 3.99981C72.8115 3.40315 72.3776 2.87915 71.8326 2.47102ZM67.794 7.70692C67.3357 8.05306 66.7578 8.22853 66.1706 8.19982L64.1018 8.19051L64.8046 4.8983H66.4972C67.7445 4.8983 68.378 5.38191 68.378 6.33051C68.3925 6.58598 68.3478 6.84137 68.247 7.07901C68.1461 7.31666 67.9916 7.5309 67.794 7.70692Z" fill="#476FF1"/>
<path d="M55.188 9.28052H53.9309C53.341 9.28052 52.8628 9.72979 52.8628 10.284V10.2849C52.8628 10.8391 53.341 11.2884 53.9309 11.2884H55.188C55.7779 11.2884 56.2561 10.8391 56.2561 10.2849V10.284C56.2561 9.72979 55.7779 9.28052 55.188 9.28052Z" fill="#476FF1"/>
<path d="M56.4649 1.23792H56.4639C55.8741 1.23792 55.3959 1.68718 55.3959 2.24139V2.24232C55.3959 2.79652 55.8741 3.24578 56.4639 3.24578H56.4649C57.0548 3.24578 57.533 2.79652 57.533 2.24232V2.24139C57.533 1.68718 57.0548 1.23792 56.4649 1.23792Z" fill="#476FF1"/>
</g>
<defs>
<clipPath id="clip0_21_552">
<rect width="74.24" height="15.81" fill="white" transform="translate(0 0.0949707)"/>
</clipPath>
</defs>
</svg>
