<svg width="96" height="96" viewBox="0 0 96 96" fill="none" xmlns="http://www.w3.org/2000/svg">
<g clip-path="url(#clip0_1738_2475)">
<mask id="mask0_1738_2475" style="mask-type:luminance" maskUnits="userSpaceOnUse" x="0" y="0" width="96" height="96">
<path d="M96 0H0V96H96V0Z" fill="white"/>
</mask>
<g mask="url(#mask0_1738_2475)">
<path d="M96 0H0V96H96V0Z" fill="#ECF0FE"/>
<path d="M51.1567 19.6727C54.6183 19.6727 72.3159 23.3719 77.7967 55.0176C79.5023 67.3712 81.3967 73.4112 82.0975 74.9216C82.1911 74.9216 82.2671 74.9128 82.3375 74.9128C82.4479 75.4216 82.3455 75.456 82.0975 74.9216C77.9231 75.1336 53.7431 76.9152 35.9687 74.9128C21.5687 73.2928 5.88867 60.1927 5.88867 60.1927C20.1439 49.0727 25.9879 37.9639 28.1599 31.1767C34.3847 17.9591 49.3839 19.6727 51.1567 19.6727Z" fill="#090909"/>
<path d="M33.5711 61.7807C22.3807 57.4719 24.6544 39.8824 30.2624 33.1296C43.8544 33.2144 51.8967 24.136 51.6599 24.9336C49.1143 33.596 49.8015 39.764 51.5239 44.0992C51.5239 44.0992 54.6543 38.8727 57.9463 43.4119C59.7863 46.8311 55.8591 50.6992 55.8591 50.6992C55.8591 50.6992 54.7991 54.5087 55.8591 60.8039C57.1108 64.899 59.8458 68.3795 63.5287 70.5639C56.3847 79.7095 50.2 80.004 43.3624 77.2152L39.8159 61.74C38.8567 62.0352 35.8447 62.6631 33.5711 61.7807Z" fill="#FFC2C2"/>
<path d="M55.9515 43.8024C54.7211 43.3104 53.3635 44.1336 52.8379 44.6088C53.6418 44.4073 54.4709 44.3245 55.2987 44.3632C55.5765 44.4061 55.8421 44.5065 56.0788 44.658C56.3155 44.8096 56.5179 45.0089 56.6731 45.2431C56.7167 44.9578 56.6708 44.6661 56.5415 44.408C56.4123 44.1499 56.2061 43.9383 55.9515 43.8024Z" fill="#F6A1A1"/>
<path d="M53.7114 51.6592C53.3566 51.7261 52.9907 51.7003 52.6488 51.5842C52.307 51.4682 52.0009 51.2659 51.7602 50.9968C51.7514 51.3704 51.8706 52.1336 52.3538 52.2184C52.8611 52.2119 53.3467 52.0119 53.7114 51.6592Z" fill="#F6A1A1"/>
<path d="M41.1298 52.3287C41.7574 52.3287 42.3708 52.1427 42.8925 51.794C43.4143 51.4454 43.8209 50.9499 44.0611 50.3702C44.3012 49.7904 44.3641 49.1524 44.2417 48.537C44.1192 47.9215 43.8171 47.3562 43.3733 46.9124C42.9296 46.4687 42.3643 46.1666 41.7488 46.0441C41.1334 45.9217 40.4954 45.9845 39.9156 46.2246C39.3359 46.4648 38.8404 46.8715 38.4917 47.3932C38.1431 47.915 37.957 48.5284 37.957 49.1559C37.957 49.9974 38.2913 50.8044 38.8863 51.3995C39.4813 51.9945 40.2884 52.3287 41.1298 52.3287Z" fill="#F6A1A1"/>
<path d="M29.3115 43.8272C29.164 44.6596 28.6932 45.3999 28.0017 45.8863C27.3103 46.3727 26.4544 46.5657 25.6211 46.4232C25.6978 45.3555 25.8364 44.2932 26.0363 43.2416C26.2096 42.2013 26.4681 41.1771 26.8091 40.1792C27.619 40.3242 28.3383 40.7848 28.8089 41.4598C29.2794 42.1349 29.4628 42.969 29.3187 43.7792C29.3171 43.7976 29.3147 43.8128 29.3115 43.8272Z" fill="#F6A1A1"/>
<path d="M39.8145 61.7385C43.1401 60.5929 50.6825 57.0984 54.7041 52.4224L54.9441 52.1425C54.8641 52.2361 54.7913 52.3296 54.7041 52.4224L41.3305 68.3297L39.8145 61.7385Z" fill="#F6A1A1"/>
<path d="M33.4173 49.3744C33.3443 49.3743 33.2719 49.3622 33.2029 49.3385C32.8493 49.2185 29.7461 48.1105 29.7461 46.1449C29.7461 45.0777 32.2005 41.1849 33.2565 39.5625C33.3043 39.4889 33.3661 39.4255 33.4384 39.3759C33.5107 39.3262 33.5921 39.2913 33.6779 39.2731C33.7637 39.2549 33.8522 39.2538 33.9385 39.2698C34.0247 39.2858 34.107 39.3187 34.1805 39.3665C34.2541 39.4143 34.3174 39.4761 34.3671 39.5484C34.4167 39.6207 34.4517 39.7021 34.4699 39.7879C34.4881 39.8737 34.4892 39.9622 34.4732 40.0484C34.4572 40.1347 34.4243 40.2169 34.3765 40.2905C32.8373 42.6585 31.1397 45.576 31.0813 46.1584C31.0813 46.8672 32.6013 47.7232 33.6325 48.0744C33.7815 48.126 33.9074 48.2287 33.988 48.3641C34.0686 48.4996 34.0987 48.6593 34.0729 48.8148C34.0471 48.9704 33.9672 49.1118 33.8472 49.214C33.7272 49.3163 33.5749 49.3736 33.4173 49.3744Z" fill="#090909"/>
<path d="M42.4711 61.8719C42.3315 61.8726 42.1962 61.8239 42.0891 61.7344C41.982 61.6449 41.91 61.5205 41.8859 61.383C41.8617 61.2456 41.887 61.104 41.9572 60.9834C42.0274 60.8627 42.138 60.7708 42.2695 60.7239C46.4565 59.1979 50.181 56.6214 53.0855 53.2415C53.1893 53.1281 53.3332 53.0597 53.4867 53.0505C53.6402 53.0413 53.7912 53.0922 53.9078 53.1924C54.0244 53.2926 54.0974 53.4342 54.1115 53.5873C54.1256 53.7404 54.0795 53.893 53.9831 54.0127C50.946 57.5467 47.0515 60.2406 42.6735 61.8359C42.6087 61.8598 42.5401 61.872 42.4711 61.8719Z" fill="#090909"/>
<path d="M41.9038 42.5848C42.0088 42.4125 42.0634 42.2143 42.0616 42.0126C42.0598 41.8109 42.0016 41.6137 41.8936 41.4433C41.7856 41.2729 41.6321 41.1361 41.4505 41.0484C41.2688 40.9606 41.0663 40.9254 40.8657 40.9467C40.6651 40.968 40.4745 41.045 40.3154 41.169C40.1562 41.293 40.0349 41.4589 39.9652 41.6482C39.8954 41.8375 39.88 42.0425 39.9206 42.2401C39.9612 42.4377 40.0563 42.62 40.1951 42.7664C40.448 42.9631 40.7674 43.0541 41.0861 43.0202C41.4047 42.9863 41.6979 42.8303 41.9038 42.5848Z" fill="#090909"/>
<path d="M31.1137 38.9896C31.1752 38.7975 31.1817 38.5921 31.1325 38.3965C31.0834 38.2009 30.9806 38.023 30.8356 37.8827C30.6907 37.7425 30.5094 37.6456 30.3123 37.603C30.1152 37.5603 29.9101 37.5736 29.7202 37.6414C29.5302 37.7091 29.363 37.8286 29.2374 37.9864C29.1118 38.1442 29.0328 38.3339 29.0093 38.5342C28.9858 38.7345 29.0189 38.9374 29.1046 39.12C29.1904 39.3025 29.3254 39.4574 29.4946 39.5672C29.7867 39.6993 30.1187 39.7129 30.4207 39.6052C30.7227 39.4974 30.9711 39.2768 31.1137 38.9896Z" fill="#090909"/>
<path d="M99.4497 95.3615C87.5889 79.9543 70.1033 72.2335 62.9177 70.3071C50.4377 77.2551 44.6593 73.9872 42.5641 72.8016C42.1057 72.5384 41.8177 72.3776 41.6841 72.4536C41.5505 72.5296 41.1753 72.6568 40.6065 72.8688C37.9089 73.8704 30.8937 76.4744 24.8009 80.5728C18.3361 84.9256 12.2274 91.7551 6.70415 97.9399C0.655351 104.702 -4.69029 110.683 -9.02549 111.761C-17.2295 113.806 -29.0391 97.0999 -31.9671 92.9679C-32.3055 92.4927 -32.5271 92.1791 -32.6071 92.0879L-43.2383 114.045C-35.4783 120.525 -18.4383 133.686 -12.4239 134.458C-3.77028 135.569 2.74572 129.206 9.02412 123.081C12.7401 119.45 16.369 115.912 20.3042 114.041C28.7802 110.036 28.7801 114.041 28.7801 114.041L16.8441 156.216L80.5834 167.576V156.216C89.9578 154.035 109.888 147.163 114.663 137.152C120.635 124.631 114.279 114.612 99.4497 95.3615ZM79.6305 135.78L78.9105 107.14C83.2969 109.55 92.477 115.819 94.0978 121.606C95.7186 127.392 85.1281 133.463 79.6297 135.779L79.6305 135.78Z" fill="#476FF1"/>
<path d="M49.8006 74.816C47.3078 74.8946 44.8374 74.3237 42.6318 73.1592C42.5596 73.1103 42.5089 73.0355 42.4903 72.9503C42.4716 72.8651 42.4865 72.776 42.5317 72.7015C42.5769 72.6269 42.649 72.5725 42.7331 72.5496C42.8173 72.5267 42.9071 72.537 42.9838 72.5784C45.6374 74.1888 53.0038 75.8304 61.8918 70.5072C61.9691 70.461 62.0615 70.4473 62.1488 70.4692C62.2361 70.4911 62.3112 70.5468 62.3574 70.624C62.4037 70.7012 62.4174 70.7937 62.3955 70.881C62.3735 70.9683 62.3178 71.0434 62.2406 71.0896C58.5109 73.442 54.2094 74.7305 49.8006 74.816Z" fill="#090909"/>
<path d="M25.0383 96.7616C25.7206 96.5243 26.3172 96.09 26.7528 95.5136C27.1883 94.9372 27.4431 94.2447 27.485 93.5235C27.5269 92.8023 27.354 92.0849 26.9883 91.4619C26.6225 90.839 26.0802 90.3384 25.43 90.0237C24.7797 89.7089 24.0507 89.594 23.3352 89.6935C22.6197 89.793 21.9498 90.1024 21.4101 90.5827C20.8704 91.0629 20.4852 91.6924 20.3033 92.3915C20.1213 93.0906 20.1508 93.828 20.3879 94.5104C20.5452 94.9634 20.7902 95.3809 21.1089 95.7392C21.4276 96.0974 21.8137 96.3894 22.2452 96.5985C22.6768 96.8075 23.1453 96.9295 23.6239 96.9575C24.1026 96.9855 24.5822 96.9189 25.0351 96.7616H25.0383Z" fill="white"/>
<path d="M58.3899 99.4496C59.0722 99.2122 59.6688 98.778 60.1043 98.2016C60.5398 97.6252 60.7946 96.9327 60.8365 96.2115C60.8785 95.4903 60.7056 94.7729 60.3398 94.1499C59.974 93.527 59.4317 93.0264 58.7815 92.7117C58.1313 92.3969 57.4023 92.282 56.6868 92.3815C55.9713 92.481 55.3013 92.7904 54.7616 93.2707C54.222 93.7509 53.8368 94.3804 53.6549 95.0795C53.4729 95.7786 53.5024 96.516 53.7395 97.1984C53.8969 97.6514 54.1421 98.0689 54.461 98.4272C54.7798 98.7855 55.1661 99.0775 55.5978 99.2864C56.0295 99.4954 56.4981 99.6173 56.9769 99.6451C57.4557 99.673 57.9352 99.6063 58.3883 99.4488L58.3899 99.4496Z" fill="white"/>
<path d="M77.7024 89.1672C78.3847 88.9299 78.9813 88.4956 79.4168 87.9192C79.8523 87.3428 80.1071 86.6503 80.1491 85.9291C80.191 85.2079 80.0181 84.4905 79.6523 83.8676C79.2865 83.2446 78.7443 82.7441 78.094 82.4293C77.4438 82.1146 76.7148 81.9996 75.9993 82.0991C75.2838 82.1986 74.6138 82.5081 74.0742 82.9883C73.5345 83.4685 73.1493 84.098 72.9674 84.7971C72.7854 85.4963 72.8148 86.2337 73.0519 86.916C73.3698 87.8309 74.0381 88.582 74.9098 89.0042C75.7814 89.4264 76.7851 89.485 77.7 89.1672H77.7024Z" fill="white"/>
</g>
</g>
<defs>
<clipPath id="clip0_1738_2475">
<rect width="96" height="96" rx="37" fill="white"/>
</clipPath>
</defs>
</svg>
