<svg width="21" height="21" viewBox="0 0 21 21" fill="none" xmlns="http://www.w3.org/2000/svg">
<path d="M18.3333 11C18.3333 10.779 18.4211 10.567 18.5774 10.4107C18.7337 10.2545 18.9457 10.1667 19.1667 10.1667C19.3877 10.1667 19.5996 10.2545 19.7559 10.4107C19.9122 10.567 20 10.779 20 11V20.1667C20 20.3877 19.9122 20.5996 19.7559 20.7559C19.5996 20.9122 19.3877 21 19.1667 21H0.833333C0.61232 21 0.400358 20.9122 0.244078 20.7559C0.0877975 20.5996 0 20.3877 0 20.1667V1.83333C0 1.61232 0.0877975 1.40036 0.244078 1.24408C0.400358 1.0878 0.61232 1 0.833333 1H10C10.221 1 10.433 1.0878 10.5893 1.24408C10.7455 1.40036 10.8333 1.61232 10.8333 1.83333C10.8333 2.05435 10.7455 2.26631 10.5893 2.42259C10.433 2.57887 10.221 2.66667 10 2.66667H1.66667V19.3333H18.3333V11Z" fill="#8C929C"/>
<path d="M7.64444 13.0422L9.16682 12.8245L18.5188 3.47436C18.6069 3.38925 18.6772 3.28744 18.7256 3.17487C18.7739 3.06231 18.7994 2.94124 18.8004 2.81873C18.8015 2.69622 18.7782 2.57472 18.7318 2.46133C18.6854 2.34794 18.6169 2.24493 18.5302 2.1583C18.4436 2.07167 18.3406 2.00316 18.2272 1.95677C18.1138 1.91037 17.9923 1.88703 17.8698 1.88809C17.7473 1.88916 17.6262 1.91461 17.5137 1.96297C17.4011 2.01132 17.2993 2.08161 17.2142 2.16973L7.86034 11.5199L7.6426 13.0422H7.64444ZM19.8234 0.863261C20.0806 1.12031 20.2847 1.42553 20.4239 1.76147C20.5631 2.0974 20.6348 2.45748 20.6348 2.82112C20.6348 3.18477 20.5631 3.54484 20.4239 3.88078C20.2847 4.21672 20.0806 4.52194 19.8234 4.77899L10.2555 14.3469C10.1145 14.4885 9.93119 14.5804 9.73332 14.6089L6.68858 15.0444C6.54668 15.0648 6.40199 15.0518 6.26597 15.0065C6.12996 14.9612 6.00637 14.8849 5.905 14.7835C5.80364 14.6822 5.72729 14.5586 5.68201 14.4226C5.63672 14.2865 5.62376 14.1419 5.64414 14L6.07963 10.9552C6.10759 10.7576 6.19888 10.5743 6.33981 10.433L15.9095 0.865106C16.4286 0.346196 17.1325 0.0546875 17.8665 0.0546875C18.6004 0.0546875 19.3044 0.346196 19.8234 0.865106V0.863261Z" fill="#8C929C"/>
</svg>
