<svg width="160" height="160" viewBox="0 0 160 160" fill="none" xmlns="http://www.w3.org/2000/svg">
<g clip-path="url(#clip0_857_4157)">
<mask id="mask0_857_4157" style="mask-type:luminance" maskUnits="userSpaceOnUse" x="0" y="0" width="160" height="160">
<path d="M160 0H0V160H160V0Z" fill="white"/>
</mask>
<g mask="url(#mask0_857_4157)">
<path d="M159.193 0H-0.806641V160H159.193V0Z" fill="#ECF0FE"/>
<path d="M230.209 178.713C214.28 214.901 167.041 198.18 155.92 188.291L173.024 154.837C178.984 158.203 192.459 163.823 198.967 158.704C207.077 152.304 218.135 108.479 218.415 105.892C219.639 95.4374 216.429 87.408 214.548 75.46C212.667 63.512 212.984 59.7187 215.756 59.524C218.528 59.3294 222.165 73.708 225.356 75.7494C225.751 76.0422 226.206 76.2438 226.689 76.3399C227.171 76.4359 227.669 76.424 228.146 76.305C228.624 76.186 229.069 75.9627 229.45 75.6514C229.83 75.34 230.138 74.9482 230.349 74.5041C233.119 65.7921 237.16 50.76 238.883 47.892C240.243 45.6254 242.7 45.8587 243.456 47.4027C244.29 49.5334 244.43 51.8731 243.856 54.088C245.589 49.088 246.704 42.9307 250.789 42.8987C254.844 42.8774 253.157 53.9654 253.157 53.9654C253.827 52.388 254.615 50.8628 255.512 49.4027C255.738 48.8788 256.126 48.4414 256.619 48.1551C257.113 47.8689 257.685 47.7491 258.252 47.8134C258.819 47.8777 259.35 48.1227 259.767 48.5122C260.184 48.9016 260.464 49.4149 260.567 49.9761C260.881 51.3841 260.332 55.8681 259.727 58.9627C259.92 58.2942 260.313 57.701 260.854 57.2634C261.395 56.8258 262.058 56.565 262.752 56.5161C266.525 56.4107 265.703 64.5254 264.836 68.6134C259.937 90.2121 246.171 142.512 230.209 178.713Z" fill="#FF6B6B"/>
<path d="M-24.8219 221.304C10.3261 239.94 36.9461 197.837 39.4874 183.249L5.13008 167.481C2.58875 173.768 -4.50323 186.456 -12.7859 186.415C-23.1552 186.369 -59.2566 158.749 -61.0979 156.889C-68.6126 149.399 -71.1046 141.156 -77.0979 130.623C-83.0912 120.089 -85.7192 117.307 -88.0512 118.864C-90.3486 120.412 -84.2086 133.931 -85.4392 137.493C-85.677 138.343 -86.2417 139.063 -87.0097 139.497C-87.7777 139.931 -88.6863 140.043 -89.5366 139.808C-89.7441 139.751 -89.9455 139.674 -90.1379 139.577C-97.7632 134.439 -110.342 125.117 -113.494 123.925C-115.983 122.976 -117.761 124.671 -117.39 126.347C-116.708 128.537 -115.356 130.459 -113.523 131.84C-118.014 128.979 -122.741 124.828 -125.969 127.307C-129.197 129.785 -120.902 137.44 -120.902 137.44C-122.415 136.614 -123.988 135.901 -125.606 135.307C-126.104 135.028 -126.679 134.919 -127.244 134.995C-127.809 135.071 -128.335 135.329 -128.741 135.729C-129.148 136.129 -129.414 136.65 -129.5 137.214C-129.585 137.778 -129.485 138.355 -129.215 138.857C-128.581 140.155 -125.349 143.337 -122.933 145.391C-123.5 144.984 -124.177 144.76 -124.875 144.748C-125.573 144.736 -126.257 144.937 -126.838 145.324C-129.866 147.556 -124.143 153.423 -120.903 156.099C-103.537 170.067 -59.9699 202.673 -24.8219 221.304Z" fill="#FF6B6B"/>
<path d="M57.312 46.4333C83.3027 22.9426 101.745 39.6333 107.712 50.9373C109.197 52.98 111.876 59.1586 110.636 67.7066C109.084 78.3893 91.7827 91.9573 92.1307 93.9333C96.0034 103.816 103.3 111.977 112.689 116.928L98.304 148.712C89.5413 142.557 71.94 130.023 71.7707 129.112C60.22 111.932 57.82 98.2693 57.82 98.2693C49.18 97.8213 24.8027 75.8226 57.312 46.4333Z" fill="#FFC2C2"/>
<path d="M55.0161 70.488C54.6751 70.4886 54.3462 70.3622 54.0935 70.1333C53.2841 69.4053 49.3161 65.6093 50.7135 62.4093C51.4548 60.7226 57.4921 56.5507 61.0241 54.2133C61.1751 54.1091 61.3455 54.036 61.5251 53.9983C61.7047 53.9607 61.89 53.9593 62.0701 53.9941C62.2503 54.0289 62.4217 54.0994 62.5743 54.2013C62.727 54.3031 62.8577 54.4345 62.959 54.5875C63.0602 54.7406 63.13 54.9123 63.1641 55.0926C63.1982 55.2729 63.196 55.4582 63.1576 55.6377C63.1192 55.8171 63.0454 55.9871 62.9405 56.1377C62.8356 56.2883 62.7018 56.4164 62.5468 56.5147C58.4881 59.2 53.7681 62.6587 53.2135 63.5613C52.8068 64.4947 54.5588 66.84 55.9335 68.084C56.139 68.2713 56.2831 68.5162 56.347 68.7868C56.4109 69.0574 56.3916 69.341 56.2915 69.6004C56.1915 69.8598 56.0155 70.083 55.7865 70.2407C55.5574 70.3983 55.2862 70.4831 55.0081 70.484L55.0161 70.488Z" fill="black"/>
<path d="M88.3177 83.3132C87.5319 83.292 86.7609 83.0951 86.0611 82.737C85.3614 82.3789 84.7506 81.8687 84.2737 81.2439C84.1084 81.9106 84.0324 83.3706 85.0644 83.7292C86.165 83.9537 87.309 83.8074 88.3177 83.3132Z" fill="#F6A1A1"/>
<path d="M96.766 72.1878C93.9354 71.1585 90.9074 73.1118 89.7207 74.1878C91.5434 73.6805 93.4289 73.4349 95.3207 73.4585C95.9543 73.5307 96.5661 73.734 97.117 74.0553C97.6679 74.3767 98.1459 74.8091 98.5207 75.3252C98.5853 74.6854 98.4516 74.0412 98.1377 73.48C97.8239 72.9187 97.345 72.4676 96.766 72.1878Z" fill="#F6A1A1"/>
<path d="M79.4715 90.092C79.4715 90.092 74.7434 94.3067 57.1621 97.892C57.1621 97.892 60.1314 109.359 64.4381 116.025C69.9341 107.671 74.9533 99.013 79.4715 90.092Z" fill="#F6A1A1"/>
<path d="M60.439 98.5346C60.0914 98.5342 59.7566 98.4026 59.5018 98.1661C59.247 97.9296 59.0908 97.6056 59.0645 97.2589C59.0382 96.9122 59.1438 96.5684 59.3601 96.2962C59.5763 96.0239 59.8874 95.8434 60.231 95.7906C64.6724 95.108 78.387 90.5532 83.431 85.9146C83.7027 85.6821 84.0539 85.5641 84.4108 85.5855C84.7677 85.6068 85.1024 85.7659 85.3444 86.0291C85.5863 86.2923 85.7167 86.6392 85.708 86.9966C85.6993 87.354 85.5522 87.6941 85.2977 87.9453C79.5484 93.2399 65.2364 97.8119 60.6524 98.5173C60.5819 98.5288 60.5105 98.5346 60.439 98.5346Z" fill="black"/>
<path d="M92.8937 24.2213C89.4017 15.4293 78.8497 0.922603 64.7217 13.1546C52.1884 23.9853 81.2444 44.2653 97.0337 58.0679C99.0604 59.8146 94.7324 68.5652 94.7324 68.5652C99.2017 66.9759 106.235 69.8719 102.763 76.3959C99.7737 82.0226 90.9244 84.3012 90.0377 83.8186C90.8055 87.1901 91.9436 90.4664 93.4311 93.5879C101.807 88.3266 119.335 75.4666 122.247 66.2426C125.871 54.7012 126.179 35.5013 115.328 26.6426C106.652 19.5493 102.144 22.8172 100.984 25.2946C101.16 24.6523 101.206 23.9815 101.12 23.3212C101.034 22.661 100.816 22.0245 100.481 21.4491C100.146 20.8737 99.6996 20.371 99.1679 19.9701C98.6361 19.5693 98.0298 19.2784 97.3844 19.1146C94.6857 18.4399 92.8311 22.1426 92.8937 24.2213Z" fill="black"/>
<path d="M74.6644 59.7973C74.5832 59.2746 74.2983 58.8054 73.872 58.4923C73.4457 58.1792 72.9128 58.0477 72.3898 58.1266H72.3778C71.854 58.2257 71.3908 58.528 71.089 58.9673C70.7873 59.4067 70.6715 59.9476 70.7671 60.472C70.8482 60.9949 71.1334 61.4643 71.56 61.7775C71.9866 62.0906 72.5199 62.2219 73.0431 62.1426H73.0537C73.5775 62.0435 74.0407 61.7414 74.3425 61.302C74.6442 60.8626 74.76 60.3217 74.6644 59.7973Z" fill="black"/>
<mask id="mask1_857_4157" style="mask-type:alpha" maskUnits="userSpaceOnUse" x="47" y="74" width="10" height="12">
<path d="M56.292 79.094C56.1132 77.6899 55.4857 76.4295 54.5468 75.5884C53.608 74.7473 52.4343 74.3941 51.2824 74.606H51.256C50.1026 74.8722 49.0823 75.6841 48.4178 76.8644C47.7532 78.0448 47.4983 79.4977 47.7087 80.9064C47.8875 82.3111 48.5154 83.5722 49.4549 84.4134C50.3945 85.2546 51.569 85.6073 52.7212 85.3943H52.7447C53.8981 85.1281 54.9184 84.3164 55.5829 83.136C56.2475 81.9557 56.5024 80.5026 56.292 79.094Z" fill="#FF6B6B"/>
</mask>
<g mask="url(#mask1_857_4157)">
<path d="M56.292 79.094C56.1132 77.6899 55.4857 76.4295 54.5468 75.5884C53.608 74.7473 52.4343 74.3941 51.2824 74.606H51.256C50.1026 74.8722 49.0823 75.6841 48.4178 76.8644C47.7532 78.0448 47.4983 79.4977 47.7087 80.9064C47.8875 82.3111 48.5154 83.5722 49.4549 84.4134C50.3945 85.2546 51.569 85.6073 52.7212 85.3943H52.7447C53.8981 85.1281 54.9184 84.3164 55.5829 83.136C56.2475 81.9557 56.5024 80.5026 56.292 79.094Z" fill="#FF6B6B"/>
<path d="M53.7231 84.29C54.1057 82.9273 54.0192 81.522 53.4825 80.3815C52.9458 79.2409 52.0026 78.4581 50.8593 78.2043L50.8349 78.194C49.669 77.9895 48.4129 78.3395 47.3409 79.1674C46.2688 79.9953 45.4676 81.2339 45.1123 82.6132C44.7293 83.9765 44.816 85.3826 45.3533 86.5235C45.8906 87.6644 46.8347 88.447 47.9788 88.7L48.0005 88.7092C49.1664 88.9137 50.4224 88.5638 51.4945 87.7359C52.5666 86.908 53.3677 85.6693 53.7231 84.29Z" fill="#FE4A5E"/>
</g>
<path d="M58.1305 51.2573C58.7665 50.3453 58.7611 49.2573 58.1198 48.8293C57.4784 48.4013 56.4438 48.7933 55.8091 49.7053C55.1744 50.6173 55.1785 51.7053 55.8198 52.1333C56.4611 52.5613 57.4958 52.1679 58.1305 51.2573Z" fill="black"/>
<path d="M104.517 115.404L71.077 131.109L61.4876 116.896C58.5703 116.496 49.2756 117.807 35.4183 125.893C21.561 133.98 -1.59769 154.72 -6.42969 168.383L30.349 196.339L25.2063 238.657C70.0383 227.96 107.46 245.457 120.54 255.524C120.854 229.452 122.829 176.919 128.237 175.445C133.633 173.943 148.218 183.128 154.838 187.919L176.422 143.339C152.494 124.664 116.337 120.087 104.517 115.404Z" fill="#476FF1"/>
<path d="M24.707 160.792C25.8442 160.396 26.8386 159.673 27.5645 158.712C28.2903 157.751 28.715 156.597 28.7849 155.395C28.8547 154.193 28.5667 152.997 27.957 151.959C27.3473 150.921 26.4435 150.087 25.3598 149.562C24.2761 149.038 23.0612 148.846 21.8686 149.012C20.6761 149.178 19.5595 149.693 18.66 150.494C17.7606 151.294 17.1186 152.343 16.8154 153.509C16.5122 154.674 16.5612 155.903 16.9564 157.04C17.2186 157.795 17.6269 158.491 18.158 159.088C18.6891 159.685 19.3327 160.172 20.0519 160.52C20.7712 160.869 21.552 161.072 22.3498 161.119C23.1476 161.165 23.9468 161.054 24.7017 160.792H24.707Z" fill="white"/>
<path d="M71.1993 156.317C72.3365 155.922 73.3308 155.198 74.0567 154.237C74.7825 153.277 75.2072 152.123 75.2771 150.921C75.3469 149.719 75.0588 148.523 74.4492 147.485C73.8395 146.446 72.9357 145.612 71.852 145.088C70.7683 144.563 69.5533 144.371 68.3608 144.537C67.1683 144.703 66.0517 145.219 65.1522 146.019C64.2528 146.82 63.6108 147.869 63.3076 149.034C63.0043 150.199 63.0534 151.428 63.4486 152.565C63.711 153.32 64.1196 154.016 64.651 154.613C65.1825 155.211 65.8263 155.697 66.5458 156.045C67.2653 156.394 68.0463 156.597 68.8442 156.643C69.6422 156.69 70.4416 156.579 71.1966 156.316L71.1993 156.317Z" fill="white"/>
<path d="M116.617 141.943C117.754 141.547 118.749 140.823 119.475 139.863C120.2 138.902 120.625 137.748 120.695 136.546C120.765 135.344 120.477 134.148 119.867 133.11C119.257 132.072 118.354 131.237 117.27 130.713C116.186 130.188 114.971 129.997 113.779 130.163C112.586 130.328 111.47 130.844 110.57 131.644C109.671 132.445 109.029 133.494 108.726 134.659C108.422 135.824 108.471 137.053 108.867 138.191C109.396 139.715 110.51 140.967 111.963 141.671C113.416 142.375 115.088 142.472 116.613 141.943H116.617Z" fill="white"/>
<path d="M72.3048 131.253L60.0528 114.119C59.8635 113.82 59.7958 113.461 59.8635 113.114C59.9312 112.768 60.1292 112.46 60.4168 112.255C60.7043 112.05 61.0595 111.963 61.4092 112.012C61.7589 112.061 62.0766 112.242 62.2968 112.519L73.2301 127.801L98.1288 116.407C98.4617 116.254 98.8415 116.241 99.1846 116.368C99.5276 116.496 99.8059 116.755 99.9581 117.088C100.11 117.421 100.124 117.801 99.9963 118.144C99.8685 118.487 99.6097 118.765 99.2768 118.917L72.3048 131.253Z" fill="black"/>
<path d="M130.832 175.063C130.474 175.063 130.13 174.924 129.873 174.675C129.616 174.426 129.465 174.087 129.453 173.729C129.213 166.187 130.084 158.651 132.036 151.361C132.13 151.008 132.361 150.706 132.678 150.523C132.995 150.34 133.372 150.29 133.726 150.385C134.079 150.479 134.381 150.711 134.564 151.027C134.747 151.344 134.797 151.721 134.702 152.075C132.82 159.103 131.981 166.37 132.212 173.643C132.223 174.008 132.089 174.363 131.839 174.63C131.589 174.897 131.244 175.053 130.878 175.065L130.832 175.063Z" fill="black"/>
<path d="M125.896 215.887H125.804C125.439 215.862 125.099 215.694 124.858 215.419C124.617 215.144 124.495 214.785 124.519 214.42C125.804 194.989 125.34 175.482 123.132 156.133C123.111 155.953 123.126 155.771 123.176 155.597C123.226 155.422 123.31 155.26 123.423 155.118C123.536 154.976 123.675 154.858 123.834 154.77C123.992 154.682 124.167 154.626 124.347 154.605C124.527 154.585 124.709 154.6 124.883 154.65C125.058 154.7 125.22 154.783 125.362 154.896C125.504 155.009 125.622 155.149 125.71 155.307C125.798 155.466 125.854 155.64 125.875 155.82C128.101 175.332 128.569 195.005 127.273 214.601C127.249 214.95 127.094 215.277 126.838 215.516C126.582 215.754 126.246 215.887 125.896 215.887Z" fill="black"/>
</g>
</g>
<defs>
<clipPath id="clip0_857_4157">
<rect width="160" height="160" rx="80" fill="white"/>
</clipPath>
</defs>
</svg>
