<svg width="20" height="20" viewBox="0 0 20 20" fill="none" xmlns="http://www.w3.org/2000/svg">
<path d="M13.2333 12.2586L9.99995 9.02527L6.76662 12.2586C6.68947 12.3358 6.59787 12.397 6.49707 12.4387C6.39627 12.4805 6.28823 12.502 6.17912 12.502C6.07001 12.502 5.96197 12.4805 5.86116 12.4387C5.76036 12.397 5.66877 12.3358 5.59162 12.2586C5.51447 12.1815 5.45327 12.0899 5.41151 11.9891C5.36976 11.8883 5.34827 11.7802 5.34827 11.6711C5.34827 11.562 5.36976 11.454 5.41151 11.3531C5.45327 11.2523 5.51447 11.1608 5.59162 11.0836L9.41662 7.2586C9.74162 6.9336 10.2666 6.9336 10.5916 7.2586L14.4166 11.0836C14.4939 11.1607 14.5552 11.2523 14.597 11.3531C14.6388 11.4539 14.6603 11.562 14.6603 11.6711C14.6603 11.7802 14.6388 11.8883 14.597 11.9891C14.5552 12.0899 14.4939 12.1815 14.4166 12.2586C14.0916 12.5753 13.5583 12.5836 13.2333 12.2586Z" fill="#999999"/>
</svg>
